<?xml version="1.0" encoding="utf-8"?>
<!DOCTYPE svg PUBLIC "-//W3C//DTD SVG 1.1//EN" "http://www.w3.org/Graphics/SVG/1.1/DTD/svg11.dtd">
<svg version="1.1" id="Layer_1" xmlns="http://www.w3.org/2000/svg" xmlns:xlink="http://www.w3.org/1999/xlink" x="0px" y="0px"
	 viewBox="0 0 1292 1460" enable-background="new 0 0 1292 1460" xml:space="preserve">
<g>
	<path fill="#DDD9D8" stroke="#DDD9D8" stroke-width="0.2" d="M130.256,526.6295c34.85-10.47,71.31-14.97,107.63-15.72
		c18.9,0.2,38.15,0.63,56.36,6.24c5.24,1.63,10.12,4.24,14.4,7.68c13.38,9.2501,25.53,20.73,33.46,35.09
		c-0.53,1.26-0.35,3.36-2.21,3.33c-15.58,3.08-30.61,8.26-45.9,12.44c-3.7,1.26-7.33,2.8-11.17,3.63
		c-7.44,1.55-14.07,5.64-21.6,6.89c-0.89-6.19-3.71-11.89-6.6-17.36c-4.57-6.64-8.9-13.63-15.1-18.9
		c-8.61-7.78-19.56-12.03-29.78-17.17c-6.87-1.89-13.81-3.56-20.69-5.43c-15.75-2.57-31.94-4.04-47.8-1.42
		C137.596,526.2495,133.906,527.7394,130.256,526.6295z"/>
	<path fill="#C6C2C1" stroke="#C6C2C1" stroke-width="0.2" d="M104.346,541.1694c19.17-6.37,39.28-10.66,59.57-10.04
		c27.74-0.13,56.77,9.81,75.19,31.27c6.12,7.41,11.02,15.99,13.58,25.3c0.76,1.8-1.33,2.53-2.62,2.96
		c-23.78,8.44-46.95,18.5-69.7,29.37c-0.89-5.2599-1.63-10.75-4.51-15.36c-4.4-6.99-10.59-13.08-18.21-16.45
		c-10.05-3.93-21.39-2.08-31.05,2.06c-15.44,6.84-27.63,19.72-35.33,34.59c-7.91,15.65-11.38,33.26-11.32,50.73
		c0,3.63,0.01,7.31,0.89,10.86c0.45,0.06,1.36,0.16,1.81,0.21c-2.9,3.36-6.99,5.34-10.24,8.32c-4.14,3.85-8.28,7.7-12.65,11.29
		c-2.49-5.31-4.01-11-4.94-16.78c2.65-1.04,0.29-6.12-0.33-1.84c-0.17-1.19-0.31-2.38-0.42-3.56c0.92-2.85,1.79-6.21,0.06-8.93
		c-0.25,1.48-0.45,2.98-0.6,4.49c-1.02-8.7-1.37-17.54-0.31-26.24c0.26-25.44,2.97-51.53,13.65-74.92
		c3.49-7.96,8.56-15.07,13.87-21.9C87.926,550.5095,95.356,544.3694,104.346,541.1694z"/>
	<path fill="#C6C2C1" stroke="#C6C2C1" stroke-width="0.2" d="M626.996,548.8895c9.56-0.12,19.12,0.23,28.68-0.03
		c0.82,4.55-0.44,9.1-0.95,13.62c-3.05,27.45-5.69,54.98-6.06,82.62c-4.81,0.14-9.62,0.09-14.43,0.13
		c-0.97-4.84,0.14-9.77-0.06-14.65C634.606,603.1895,632.086,575.7994,626.996,548.8895z"/>
	<path fill="#C6C2C1" stroke="#C6C2C1" stroke-width="0.2" d="M451.2659,560.9894c37.61-5.89,75.6201-8.87,113.61-11.02
		c4.87,0.02,9.74-0.37,14.62-0.24c9.45,25.35,17.19,51.35,22.48,77.9c0.88,6.07,2.82,11.99,2.98,18.16
		c-48.15,1.29-96.25,4.81-144.04,10.83c-50.04,6.38-99.81,15.39-148.53,28.59c-38.54,10.53-76.58,23.5-112.36,41.42
		c-16.17,8.29-31.93,17.52-46.28,28.71c-12.85,10.0699-24.85,21.62-33.42,35.64c-6.95,11.24-11.33,24.32-11.1,37.63
		c0.02,7.77,1.77,15.44,4.39,22.73c-0.39-0.21-1.16-0.63-1.54-0.83c-4.41-5.94-7.54-12.69-10.92-19.23
		c-10.96-21.42-18.25-45.56-16.01-69.8199c1.32-14.15,6.26-27.87,13.77-39.9c11.22-17.42,26.93-31.54,44.01-43.05
		c49.62-35.06,104.55-62.44,161.96-82.2C352.4059,579.8795,401.5859,568.4894,451.2659,560.9894z"/>
	<path fill="#C6C2C1" stroke="#C6C2C1" stroke-width="0.2" d="M701.946,551.3795c13.32-0.59,26.68,1.29,40.02,1.53
		c61.2,3.75,122.23,11.14,182.35,23.25c45.42,9.1,90.25,21.27,133.79,37.1c35.7,13,70.1499,30.45,99.6499,54.62
		c13.9801,11.6,26.8401,24.77,36.7301,40.07c9.4199,14.54,16.09,31.15,17.5299,48.51c-0.2799,6.64,0.5601,13.36-0.8099,19.92
		c-3.25,20.1-10.8301,39.51-21.8201,56.61l-0.99,0.28c5.5801-20.05,8.86-41.01,6.7101-61.83c-1.8401-20.82-9.2001-41-20.5-58.53
		c-17.5-26.88-43.1801-47.43-70.79-63.2c-17.52-10.21-36.1-18.47-55-25.76c-47.8199-18.4-97.5999-31.32-147.89-40.89
		c-60.09-11.55-121.15-16.67-182.03-21.97c-1.3,23.8199-1.86,47.67-3.53,71.47c-0.3,4.66-0.35,9.34-0.42,14.01
		c-16.23-0.67-32.47-1-48.71-1.34c4.6-26.61,13.97-52.22,26-76.34C695.206,562.9194,698.146,556.8795,701.946,551.3795z"/>
	<path fill="#736A63" stroke="#736A63" stroke-width="0.2" d="M718.896,561.0895c60.88,5.3,121.94,10.42,182.03,21.97
		c50.29,9.57,100.07,22.49,147.89,40.89c18.9,7.29,37.48,15.55,55,25.76c27.61,15.77,53.29,36.3199,70.79,63.2
		c11.2999,17.53,18.6599,37.71,20.5,58.53c2.1499,20.82-1.13,41.78-6.7101,61.83c-8.9299,15.3-21.3199,28.38-34.21,40.43
		c-1.52,1.18-2.98,3.62-5.16,2.35c6.36-8.5,12.9601-16.9,18.11-26.23c8.2201-17.28,7.66-38.26-0.7799-55.35
		c-7.3301-15.47-19.25-28.24-32.3401-39.02c-28-22.89-61.1499-38.42-94.72-51.25c-39.7199-14.91-80.8799-25.71-122.4299-34.14
		c-66.52-13.31-134.18-20.45-201.92-23.49c0.07-4.67,0.12-9.35,0.42-14.01C717.0359,608.7595,717.5959,584.9094,718.896,561.0895z"
		/>
	<path fill="#E4E8E9" stroke="#E4E8E9" stroke-width="0.2" d="M1254.6161,755.1594c-3.75-20.38-12.9902-39.44-25.3301-55.97
		c-21.9302-29.92-52.4199-52.09-83.73-71.29c-0.0601-1.7-1.8003-2.17-3.02-2.77l0.1699,1.91c-1.71-1.47-3.48-2.85-5.49-3.85
		c-4.3201-2.17-8.3101-5.03-12.95-6.5c0.4299-0.13,0.8699-0.26,1.3398-0.38c-4.1299-0.92-7.5801-3.45-11.3599-5.17
		c-17.3601-8.72-35.29-16.19-53.3601-23.27c-20.6499-7.57-41.3898-14.98-62.5998-20.79c-2.8801-1.39-6.01-2.2-9.2202-2.04
		c0.9702-0.27,1.9502-0.54,2.9502-0.8c-2.79-0.26-5.5901-0.56-8.27-1.32c-18.29-5.15-36.8101-9.41-55.3701-13.39
		c-9.6099-1.91-19.24-3.74-28.7998-5.86c-18.8801-2.93-37.6501-6.76-56.6702-8.81c-6.1799-1.44-12.52-1.64-18.8201-1.62
		c-3.8699-1.58-8.0498-2.05-12.0999-2.9c-8.04-0.17-16.02-1.22-24.05-1.52c-6.3201-1.06-12.73-1.65-19.1401-1.71l-0.6899-0.36
		c-4.46,0.03-8.8999-0.39-13.2998-1.07c-0.8201,0-2.46,0-3.28,0.01c-1.0801-0.03-2.1501-0.07-3.2-0.1
		c-4.25-0.58-8.5303-0.75-12.8-0.91c-4.9602-0.09-9.9402-0.17-14.8301-1.07l-0.97-0.02c-0.3999-0.02-1.2-0.08-1.5901-0.1
		c-0.6099-1.65,0.9099-2.86,1.98-3.82c0.1201-0.42,0.3701-1.27,0.49-1.6899c10.53-18.3701,20.9302-37.1001,26.8501-57.5401
		c6.54-21.51,6.46-44.77,0.75-66.46c-4.22-16.33-11.24-31.8-19.55-46.4301c-1.03-1.76-1.8799-3.61-2.6399-5.48
		c-0.1101,0.4299-0.2002,0.87-0.29,1.3201c-0.49-2.6901-2.1201-4.8901-3.5801-7.1201c-7.9099-12.59-16.3899-24.85-25.76-36.3999
		c-0.4299-0.27-1.29-0.8201-1.72-1.1001c0-0.26,0.01-0.7899,0.01-1.0599c-0.3699-0.52-0.73-1.04-1.0801-1.5599
		c-3.1199-3.4801-6.0898-7.0901-8.8999-10.8201c-0.96-1.0901-1.8301-2.25-2.6199-3.46c-3.8401-3.79-7.3301-7.9-10.6702-12.1201
		c-13.5601-15.46-27.9099-30.22-42.26-44.96c-1.8-1.8699-3.5601-3.78-5.47-5.53c-1.26-0.96-2.5801-1.8398-3.8801-2.73
		c1.9502,2.6801,3.7002,5.5,5.25,8.4301c0.75,0.89,1.53,1.7799,2.25,2.7c0,0.0001,0,0.0001,0,0.0001
		c15.9702,23.97,26.9102,50.98,34.0801,78.7999c0.98,4.0399,1.21,8.27,2.8,12.16c-0.21-2.3401-0.53-4.65-0.9399-6.96
		c1.05,2.8999,1.5701,5.9099,1.1299,8.99c7.6201,40.1299,7.2102,81.3499,4.05,121.9199c-0.05,8.02-1.8799,15.89-2.1099,23.9
		c-2.0701,18.61-4.1501,37.23-6.73,55.79c-7.55,0.09-15.1301-0.46-22.6301,0.55c-5.4399,0.26-10.8899,0.1-16.3201,0.28
		c-13.28-48.8401-37.0801-93.9701-51.8301-142.3301c-6.8398-22.8199-11.4897-46.3999-12.96-70.1899
		c-1.9099-31.73,0.9402-63.62,7.4001-94.71c3.3799-18.22,8.8298-35.96,13.5999-53.8401c2.3801-5.71,3.8701-11.73,5.8801-17.5699
		c12.8699-37.24,28.02-73.66,45.02-109.2001c1.8201-4.25,4.5901-8.1599,5.3799-12.8099c-1.9399,1.49-3.77,3.11-5.4099,4.91
		c-17.3601,19.01-34.8501,37.9199-51.02,57.96c-4.6599,4.48-7.76,10.21-12.05,15c-5.53,7.4399-11.4099,14.62-16.45,22.41
		c-8.77,11.8099-16.6799,24.26-24.04,36.99c-19.2701,32.48-34.4099,68.1-39.1599,105.8099
		c-4.71,35.3301,1.1599,71.3901,13.1899,104.74c4.8699,12.8801,9.78,25.75,15.8101,38.1501
		c4.8899,9.8899,9.04,20.1499,14.3201,29.8499c4.1899,8.46,8.4099,16.9,12.3398,25.48c6.5601,11.4901,11.3501,23.86,17.54,35.54
		c3.52,7.87,7.1899,15.68,10.5601,23.63c0.1099,0.69,1.1599,1.98-0.04,2.34c-4.8,1.32-9.8701,1.04-14.79,1.61
		c-69.0699,5.94-137.76,16.96-205.0301,33.79c-1.6199,0.34-3.24,0.64-4.8599,0.97c-0.6602-0.56-1.3-1.13-1.9202-1.7
		c-0.5298,1.26-0.3499,3.36-2.21,3.33c-15.5801,3.08-30.6099,8.26-45.8999,12.44c-3.7002,1.26-7.3301,2.8-11.1699,3.63
		c-7.4402,1.55-14.0701,5.64-21.6001,6.89c-0.8901-6.19-3.71-11.89-6.6001-17.36c-4.5698-6.64-8.8999-13.63-15.0999-18.9
		c-8.6101-7.78-19.5601-12.03-29.78-17.17c-6.8701-1.89-13.8101-3.5599-20.6899-5.4299c-15.75-2.57-31.9402-4.04-47.8-1.42
		c-3.6599,0.32-7.3501,1.81-11,0.7c-3.49,0.54-6.76,1.91-10.04,3.16c-8.54,2.9999-16.9001,6.6299-24.6399,11.34
		c-6.25,3.67-11.02,9.41-14.8401,15.47c7.1899-6.09,14.6199-12.23,23.6101-15.43c19.1699-6.37,39.2798-10.66,59.5698-10.04
		c27.74-0.13,56.77,9.81,75.1899,31.27c6.1201,7.41,11.02,15.99,13.5801,25.3c0.76,1.8-1.3301,2.53-2.6201,2.96
		c-23.7798,8.44-46.95,18.5-69.7,29.37c-6.3398,3.77-13.1399,6.6801-19.5198,10.36c-10.5901,5.43-20.5801,11.91-30.79,17.99
		c-0.2603-2.37-0.53-4.73-0.6802-7.1c-0.26,2.65-0.02,5.4-0.7,8c-5.01,4.01-10.6101,7.26-15.7,11.2
		c-10.6299,8.07-21.25,16.37-30.3301,26.19c-2.8999,3.36-6.99,5.34-10.24,8.32c1.3601,2.32-1.51,3.73-2.6599,5.38
		c-14.0901,16.82-25.01,36.68-29.4502,58.3c-1.2397,5.13-1.1299,10.44-2.21,15.6c-0.6799-1.9-1.2598-3.83-1.7998-5.75
		c-0.6201,3.08-0.73,6.22,0.3499,9.22c0.1902-0.28,0.5901-0.85,0.79-1.14c2.3201,22.06,9.0701,43.61,19.28,63.28
		c9.6899,17.85,21.97,34.27,36.21,48.75c21.72,21.93,47.1899,39.87,74.0601,54.91c57.5698,31.75,121.05,51.04,185.01,65.04
		c65.78,14.12,132.8499,21.37,199.95,25.25c4.01,0.36,8.02,0.7899,12.0601,0.7799c9.6599-0.12,19.26,1.3301,28.9199,1
		c6.7-0.25,13.3901,0.14,20.0701,0.55c17.6299,0.0699,35.27,0.29,52.8999-0.09c10.01-0.9,20.05-0.1801,30.0801-0.5801
		c6.3298-0.1499,12.6399-1.08,18.99-0.89c7.3501,0.2301,14.6499-0.99,22-0.98c6.6899,0.1,13.3-1.23,19.99-1.0699
		c44.1301-3.1,88.26-7.12,131.9299-14.33c45.7002-7.15,91.05-17.14,135.01-31.64c7.29-2.06,13.9802-5.68,21.1799-7.98
		c9.98-3.96,20.04-7.73,29.8501-12.08c8.5-4.25,17.3799-7.71,25.6299-12.45c6.77-3.95,14.04-6.97,20.6101-11.28
		c24.27-14.2,46.8499-31.34,66.79-51.19c28.27-28.31,50.0598-63.07,63.1101-100.9c1.1699-3.3,1.77-6.81,3.5798-9.85
		c0.3401,2.41,0.6301,4.84,0.8601,7.28l0.0298-0.19c-0.0898-4.82,0.1001-9.63,0.6401-14.41
		C1256.2958,767.3795,1255.486,761.2294,1254.6161,755.1594z M721.727,525.3326c-2.3521-0.0106-4.6411-0.3082-6.3911-2.1332
		C717.0859,525.0244,719.3752,525.3221,721.727,525.3326z M1211.2059,776.3795c-3.25,20.1-10.8301,39.51-21.8201,56.61l-0.99,0.28
		c-8.9299,15.3-21.3198,28.38-34.21,40.43c-1.52,1.18-2.98,3.62-5.1602,2.35c-0.1899,0.5-0.5598,1.51-0.75,2.02l-0.6797,0.04
		c-0.3403,1.78-2.2402,2.51-3.3301,3.77c-12.2603,12.57-26.2202,24.26-42.8101,30.52c-7.76,3.96-14.8999,9.08-22.6099,13.17
		c-37.3101,20.51-78.02,33.96-119.0502,44.79c-67.71,17.29-137.1699,27.03-206.7998,32.12c-26.6401,2.04-53.3501,2.64-80.05,3.1
		c-56.3201,1.14-112.71,0.3-168.93-3.47c-57.46-3.95-114.8501-10.74-171.1301-23.22c-33.6799-7.56-67.0598-17.06-98.8699-30.57
		c-15.7202-6.71-30.9102-14.61-45.73-23.11c-0.8301-0.45-1.5701-1-2.21-1.66c-1.0801-0.32-2.1001-0.77-3.0601-1.33
		c-22.8-13.97-43.9199-31.4-59.3501-53.42c-3.8501-5.51-7.78-11.09-10.05-17.46c-0.3899-0.21-1.1599-0.63-1.5398-0.83
		c-4.4102-5.94-7.54-12.69-10.9202-19.23c-10.96-21.42-18.25-45.56-16.01-69.8199c1.3201-14.15,6.26-27.87,13.77-39.9
		c11.22-17.42,26.9302-31.54,44.01-43.05c49.6199-35.06,104.55-62.44,161.9599-82.2c47.52-16.43,96.7-27.82,146.3801-35.32
		c37.6099-5.89,75.6199-8.87,113.6099-11.02c4.8701,0.02,9.74-0.37,14.6201-0.24c9.45,25.35,17.1899,51.35,22.48,77.9
		c0.8799,6.07,2.8198,11.99,2.98,18.16l0.4099-0.01c1.1101,7.53,2.23,15.07,3.04,22.65c2.8601,24.84,3.6399,49.9,2.79,74.88
		c-0.27,4.15-0.1599,8.32-0.54,12.46l-0.0701-0.31c-0.2,10.79-2.0999,21.54-2.22,32.3c3.1702-11.78,6.3701-23.56,9.2102-35.43
		c0.71-3.13,1.4299-6.25,2.1099-9.37l0.1401-0.01c5.3899-25.07,9.8999-50.37,12.3198-75.92l0.6499,0.2l-0.7798-0.27
		c0.9199-7.21,1.26-14.48,1.6499-21.73h0.5701c-0.97-4.84,0.1399-9.77-0.0601-14.65c0.4299-27.39-2.0901-54.78-7.1799-81.69
		c9.5601-0.12,19.1199,0.23,28.6799-0.03c0.8201,4.55-0.4399,9.1-0.95,13.62c-3.05,27.45-5.6899,54.98-6.0601,82.62
		c0.0601,7.52,0.2,15.04,0.3799,22.56c0.9902,24.4301,4.4702,48.83,11.3501,72.32l0.0801-0.51c1.0698,4.08,2.5,8.06,3.8799,12.05
		c1.9102,5.07,3.9502,10.1,6.1401,15.07c-0.77-4.8701-1.99-9.65-2.6699-14.53h-0.1001c-0.53-3.54-1.1899-7.04-1.6802-10.57
		c-3.6799-24.49-4.98-49.41-2.71-74.09c0.5701-7.44,1.6702-14.82,2.9001-22.17c4.5999-26.61,13.97-52.22,26-76.34
		c2.97-5.97,5.9099-12.01,9.71-17.51c13.3201-0.59,26.6799,1.29,40.02,1.53c61.2,3.75,122.23,11.14,182.3499,23.25
		c45.4202,9.1,90.25,21.27,133.79,37.1c35.7002,13,70.1499,30.45,99.6499,54.62c13.9802,11.6,26.8403,24.77,36.7302,40.07
		c9.4199,14.54,16.0901,31.15,17.53,48.51C1211.736,763.0994,1212.576,769.8195,1211.2059,776.3795z"/>
	<path fill="#A39E9A" stroke="#A39E9A" stroke-width="0.2" d="M126.596,590.2794c9.66-4.14,21-5.99,31.05-2.06
		c-15.81,13.08-26.44,32.58-28.27,53.06c-0.26,2.65-0.02,5.4-0.7,8c-5.01,4.01-10.61,7.26-15.7,11.2
		c-10.63,8.07-21.25,16.37-30.33,26.19c-0.45-0.05-1.36-0.15-1.81-0.21c-0.88-3.55-0.89-7.23-0.89-10.86
		c-0.06-17.47,3.41-35.08,11.32-50.73C98.966,609.9995,111.156,597.1194,126.596,590.2794z"/>
	<path fill="#282721" stroke="#282721" stroke-width="0.2" d="M634.236,645.2294c4.81-0.04,9.62,0.01,14.43-0.13
		c0.06,7.52,0.2,15.04,0.38,22.56c-5.4,0.07-10.99,1.13-16.25-0.43l-0.78-0.27c0.92-7.21,1.26-14.48,1.65-21.73H634.236
		 M633.766,660.5294c1.17,2.27,3.73,3.28,5.91,4.35c2.68,0.05,5.6-0.26,7.96-1.64c1.36-2.54,0.44-5.7,0.17-8.43
		c-2.98-0.35-6.02-0.87-8.98-0.2C636.116,655.2194,632.986,657.3195,633.766,660.5294z"/>
	<path fill="#292621" stroke="#292621" stroke-width="0.2" d="M460.916,656.6194c47.79-6.02,95.89-9.54,144.04-10.83l0.41-0.01
		c1.11,7.53,2.23,15.07,3.04,22.65c-10.5099,0.62-21.05,0.36-31.54,1.25c-18.89,0.25-37.69,2.27-56.53,3.4
		c-7.57,0.72-15.1501,1.34-22.7201,2.17c-1.69-2.07-4.42-0.35-6.57-0.32c-15.81,1.79-31.71,2.89-47.46,5.27
		c-12.02,1.43-23.97,3.41-35.96,5.03c-12.34,2.42-24.83,3.97-37.07,6.88c-11.35,1.72-22.36,5.02-33.6,7.27
		c-8.87,1.8-17.37,4.95-26.19,6.92c-7.8,2.04-15.52,4.38-23.17,6.91c-7.71,2.43-13.81,7.96-19.98,12.94
		c-1.18-0.01-2.39-0.03-3.49,0.48c-28.22,11.46-55.66,25.48-79.76,44.25c-13.5,10.47-25.47,23.01-34.7,37.42
		c-4.82,7.51-8.16,15.88-10.42,24.49c1.27,0.55,2.56,1.11,3.87,1.61c-6.39-1.17-13.21,0.91-17.65,5.68
		c-1.88,1.94-1.87,5.87,0.76,7.19c3.29,1.77,7.23,1.44,10.85,1.3c0.96,7.02,1.26,14.24,3.85,20.92c1.36,3.41,2.52,6.91,4.03,10.27
		c7.56,13.43,17.95,25.16,30.05,34.69c3.34,3.48,7.96,5.39,11.07,9.1c-1.08-0.32-2.1-0.77-3.06-1.33
		c-22.8-13.97-43.92-31.4-59.35-53.42c-3.85-5.51-7.78-11.09-10.05-17.46c-2.62-7.29-4.37-14.96-4.39-22.73
		c-0.23-13.31,4.15-26.39,11.1-37.63c8.57-14.02,20.57-25.57,33.42-35.64c14.35-11.19,30.11-20.42,46.28-28.71
		c35.78-17.92,73.82-30.89,112.36-41.42C361.106,672.0095,410.8759,662.9995,460.916,656.6194z"/>
	<path fill="#292621" stroke="#292621" stroke-width="0.2" d="M666.236,645.2294c16.24,0.34,32.48,0.67,48.71,1.34
		c67.74,3.04,135.4,10.18,201.92,23.49c41.55,8.43,82.71,19.23,122.4299,34.14c33.5701,12.83,66.72,28.36,94.72,51.25
		c13.0901,10.78,25.01,23.55,32.3401,39.02c8.4399,17.09,9,38.07,0.7799,55.35c-5.1499,9.33-11.75,17.73-18.11,26.23
		c-0.1899,0.5-0.5599,1.51-0.75,2.02l-0.6799,0.04c-0.3401,1.78-2.24,2.51-3.3301,3.77c-12.26,12.57-26.22,24.26-42.8099,30.52
		c3.53-3.65,7.83-6.39,11.78-9.55c20.35-15.99,37.8899-37,45.0399-62.28c3.75-11.65,3.5701-24.61-1.36-35.9
		c-5.45-12.89-15.09-23.51-25.73-32.38c-14.8101-13.01-32.28-22.5-49.91-31.08c-11.73-5.64-23.71-10.77-35.95-15.21
		c-2.05-0.78-4.28-1.92-6.4-0.68c-6.53-4.65-14.55-5.9-21.8599-8.81c0.19,0.52,0.55,1.56,0.73,2.08c-2.8-1.5-5.13-3.88-8.27-4.67
		c-8.15-2.32-16.25-4.81-24.47-6.8c0.56-0.76,1.12-1.53,1.69-2.3c-1.49-2.54-3.46-4.96-6.47-5.65c-7.55-2.58-15.76-3.05-23.61-1.84
		c-2.4,0.32-4.72,0.98-6.97,1.8c-1.15-0.77-2.37-1.45-3.72-1.68c-11.24-2.47-22.56-4.54-33.8-6.98c-1.24-0.37-2.46-0.79-3.65-1.19
		c-0.23-4.05-3.63-6.68-7.51-6.84c-4.28-0.78-7.51,2.42-10.94,4.32c-19.32-3.25-38.73-5.97-58.18-8.29
		c-6.12-0.73-12.22-2.17-18.41-1.6c1.27-2.01,1.93-4.93-0.21-6.63c-3.4301-2.73-8.48-2.18-12.27-0.53c-2.14,0.87-1.81,3.6-2.37,5.45
		c-5.15-1.0699-10.43-1.0699-15.64-1.63c-29.97-2.61-60.01-4.21-90.07-5.05c0.14-2.74,0.37-5.93-1.96-7.87
		c-5.47-3.95-13.28-4.31-19.21-1.16c-3.24,1.78-4.66,5.75-3.36,9.21c-1.66-0.53-3.38-0.89-5.06-1.2599
		C663.9059,659.9595,665.006,652.5795,666.236,645.2294z"/>
	<path fill="#15130B" stroke="#15130B" stroke-width="0.2" d="M633.766,660.5294c-0.78-3.21,2.35-5.31,5.06-5.92
		c2.96-0.67,6-0.15,8.98,0.2c0.27,2.73,1.19,5.89-0.17,8.43c-2.36,1.38-5.28,1.69-7.96,1.64
		C637.496,663.8094,634.936,662.7994,633.766,660.5294z"/>
	<path fill="#533D20" stroke="#533D20" stroke-width="0.2" d="M671.756,659.4495c5.93-3.15,13.74-2.79,19.21,1.16
		c2.33,1.94,2.1,5.13,1.96,7.87c-6.42,6.18-18.36,7.11-24.53,0.18C667.0959,665.1995,668.516,661.2294,671.756,659.4495z"/>
	<path fill="#020100" stroke="#020100" stroke-width="0.2" d="M632.146,667.0294l0.65,0.2c5.26,1.56,10.85,0.5,16.25,0.43
		c0.99,24.4301,4.47,48.83,11.35,72.32c-0.05,0.38-0.17,1.16-0.22,1.55c-13.45,0.46-26.92,0.3701-40.35,1.42
		C625.216,717.8795,629.726,692.5795,632.146,667.0294z"/>
	<path fill="#020100" stroke="#020100" stroke-width="0.2" d="M663.336,667.3995c1.68,0.37,3.4,0.73,5.06,1.2599
		c6.17,6.9301,18.11,6,24.53-0.18c30.06,0.84,60.1,2.44,90.07,5.05c5.21,0.5601,10.49,0.5601,15.64,1.63
		c3.44,4.96,10.09,3.96,14.85,1.71c6.19-0.57,12.29,0.87,18.41,1.6c19.45,2.32,38.86,5.04,58.18,8.29c1.95,2.23,3.78,5.09,6.92,5.68
		c5.25,1.41,9.88-2.83,15.18-1.97c11.24,2.44,22.56,4.51,33.8,6.98c1.35,0.23,2.57,0.91,3.72,1.68c-2.19,1.11-4.92,1.97-6.02,4.38
		c-0.25,1.45-0.2,3.27,1.13,4.24c2.76,2.28,6.22,3.59,9.76,4.07c7.36,1.58,15.05,1.2,22.35-0.54c2.99-0.71,5.91-1.97,8.14-4.16
		c8.22,1.99,16.32,4.48,24.47,6.8c3.14,0.79,5.47,3.17,8.27,4.67c13.8,8.4,26.3799,18.81,37.4799,30.55
		c6.4501,7.3,12.3401,15.45,15.29,24.83c1.53,5.23,1.97,11.84-2.26,15.97c-4.38,4.72-11.39,4.69-17.34,4.99
		c-21.2001-0.05-42.0099-4.75-62.6899-8.95c-45.66-10.51-91.13-22.06-137.32-30.09c-27.81-5.05-55.85-8.75-84.01-11.17
		c-33.56-2.6299-67.25-3.3199-100.9-3.23C662.366,716.9995,661.066,692.0795,663.336,667.3995 M848.176,682.8795
		c-2.99,0.43-6.37,2.99-4.86,6.35c2.71,4.28,8.68,4.16,12.95,2.65c3.17-0.81,3.74-5.38,1.87-7.59
		C855.236,682.3995,851.476,681.9094,848.176,682.8795z"/>
	<path fill="#020100" stroke="#020100" stroke-width="0.2" d="M576.866,669.6794c10.49-0.89,21.03-0.63,31.54-1.25
		c2.86,24.84,3.64,49.9,2.79,74.88c-46.69,2.22-93.45,9.03-140.22,4.58c-11.88-1.17-24.55-2.65-34.47-9.87
		c-4.79-3.37-7.1-9.73-5.36-15.36c2.68-8.61,9.21-15.25,15.64-21.2599c14.43-12.7401,32.31-21.25,50.83-26.15
		c7.57-0.83,15.1501-1.45,22.7201-2.17C539.176,671.9495,557.976,669.9294,576.866,669.6794z"/>
	<path fill="#523D22" stroke="#523D22" stroke-width="0.2" d="M801.006,669.7095c3.79-1.65,8.84-2.2,12.27,0.53
		c2.14,1.7,1.48,4.62,0.21,6.63c-4.76,2.25-11.41,3.25-14.85-1.71C799.196,673.3094,798.866,670.5795,801.006,669.7095z"/>
	<path fill="#3E3B34" stroke="#3E3B34" stroke-width="0.2" d="M491.0459,674.9294c2.15-0.03,4.88-1.75,6.57,0.32
		c-18.52,4.9-36.4,13.41-50.83,26.15c-6.43,6.0099-12.96,12.65-15.64,21.2599c-1.74,5.63,0.57,11.9901,5.36,15.36
		c9.92,7.22,22.59,8.7,34.47,9.87c46.77,4.45,93.53-2.36,140.22-4.58c-0.27,4.15-0.16,8.32-0.54,12.46l-0.0699-0.31
		c-0.14-0.6-0.4-1.79-0.54-2.39c-18.43,0.11-36.79,2.17-55.13,3.79c-44.35,4.51-88.27,12.38-132.01,20.79
		c-27.53,4.8799-55.07,10.12-83.01,12.0099c-17.91,1.17-36.01,1.4-53.79-1.34c-10.18-1.57-20.45-4.79-28.59-11.3
		c-2.44-2.05-4.67-4.46-5.86-7.47c1.1-0.49,3.03-0.11,3.39-1.63c0.98-3.19,2.68-6,4.72-8.61c2.35-5.76-1.69-11.01-5.18-15.19
		c-1.69-0.64-3.35-1.29-5.04-1.9c1.28-0.02,2.57-0.03,3.86-0.03c3.67-6.19,8.49-11.67,14.21-16.04
		c6.17-4.98,12.27-10.51,19.98-12.94c7.65-2.53,15.37-4.87,23.17-6.91c8.82-1.97,17.32-5.12,26.19-6.92
		c11.24-2.25,22.25-5.55,33.6-7.27c12.24-2.91,24.73-4.46,37.07-6.88c11.99-1.62,23.94-3.6,35.96-5.03
		C459.3359,677.8195,475.2359,676.7194,491.0459,674.9294 M375.2859,715.8895c-1.52,1.92-1.72,4.47-2.3,6.77
		c1.62,1.64,3.07,3.51,5,4.83c3.28,0.58,6.64,0.34,9.96,0.26c1.17-1.21,2.35-2.41,3.56-3.58c1.4-0.36,2.78-0.79,4.06-1.49
		c-0.66-2.65-1.58-5.33-3.56-7.28c-2.62-3.27-7.29-1.82-10.91-1.9C379.6259,715.3395,377.1759,714.9495,375.2859,715.8895
		 M317.1859,730.7294c-3.55,1.08-5.68,4.53-6.86,7.84c3.46,0.58,3.93,5.46,7.58,5.14c3.33,0.18,6.7,0.38,10.03-0.03
		c1.18-0.88,1.74-2.31,2.54-3.48c1.01-0.55,2.04-1.08,3.06-1.6C332.4259,731.5795,323.3659,726.6194,317.1859,730.7294
		 M267.326,760.9995c-3.04,0.24-6.42,1.03-8.02,3.91c-0.53,2.13,0.47,4.97,2.73,5.63c3.54,1.45,7.83,1.36,11.08-0.76
		c1.34-1.3,3.02-3.2,1.94-5.17C273.6259,761.9094,270.2059,760.8795,267.326,760.9995z"/>
	<path fill="#A9A8A6" stroke="#A9A8A6" stroke-width="0.2" d="M54.126,675.1694c1.73,2.72,0.86,6.08-0.06,8.93
		c-0.19-1.49-0.37-2.97-0.54-4.44C53.676,678.1495,53.876,676.6495,54.126,675.1694z"/>
	<path fill="#16130C" stroke="#16130C" stroke-width="0.2" d="M848.176,682.8795c3.3-0.97,7.06-0.48,9.96,1.41
		c1.87,2.21,1.3,6.78-1.87,7.59c-4.27,1.51-10.24,1.63-12.95-2.65C841.806,685.8694,845.186,683.3094,848.176,682.8795z"/>
	<path fill="#17130A" stroke="#17130A" stroke-width="0.2" d="M890.076,686.7595c3.43-1.9,6.66-5.1,10.94-4.32
		c3.88,0.16,7.28,2.79,7.51,6.84c1.19,0.4,2.41,0.82,3.65,1.19c-5.3-0.86-9.93,3.38-15.18,1.97
		C893.856,691.8494,892.026,688.9894,890.076,686.7595z"/>
	<path fill="#A4A3A1" stroke="#A4A3A1" stroke-width="0.2" d="M54.486,687.6594c0.62-4.28,2.98,0.8,0.33,1.84
		C54.726,689.0394,54.566,688.1194,54.486,687.6594z"/>
	<path fill="#4F412E" stroke="#4F412E" stroke-width="0.2" d="M956.666,697.3295c7.85-1.21,16.06-0.74,23.61,1.84
		c3.0099,0.69,4.98,3.11,6.47,5.65c-0.57,0.77-1.13,1.54-1.69,2.3c-2.23,2.19-5.15,3.45-8.14,4.16
		c-7.3,1.7401-14.99,2.1201-22.35,0.54c3.98-0.67,8.02-0.53,12.04-0.48c0.07-0.6201,0.21-1.85,0.28-2.47
		c3.92,1.27,8.45,2.3,12.16-0.18c2.78-1.06,3.62-5.47,0.97-7.13c-3.11-2.47-7.31-1.95-10.94-1.33c-0.14-0.59-0.41-1.78-0.54-2.37
		C964.566,697.9395,960.5959,697.8195,956.666,697.3295z"/>
	<path fill="#543D1E" stroke="#543D1E" stroke-width="0.2" d="M949.696,699.1295c2.25-0.82,4.57-1.48,6.97-1.8
		c3.93,0.49,7.9,0.61,11.87,0.53c0.13,0.59,0.4,1.78,0.54,2.37c-1.46,1.24-3.31,2.39-3.83,4.36c0.34,1.48,1.03,2.86,1.64,4.28
		c-0.07,0.62-0.21,1.85-0.28,2.47c-4.02-0.05-8.06-0.19-12.04,0.48c-3.54-0.48-7-1.79-9.76-4.07c-1.33-0.97-1.38-2.79-1.13-4.24
		C944.776,701.0994,947.506,700.2394,949.696,699.1295z"/>
	<path fill="#191206" stroke="#191206" stroke-width="0.2" d="M969.076,700.2294c3.63-0.62,7.83-1.14,10.94,1.33
		c2.65,1.66,1.81,6.07-0.97,7.13c-3.71,2.48-8.24,1.45-12.16,0.18c-0.61-1.42-1.3-2.8-1.64-4.28
		C965.766,702.6194,967.616,701.4694,969.076,700.2294z"/>
	<path fill="#543D1D" stroke="#543D1D" stroke-width="0.2" d="M375.2859,715.8895c1.89-0.94,4.34-0.55,5.81-2.39
		c3.62,0.08,8.29-1.37,10.91,1.9c1.98,1.95,2.9,4.6299,3.56,7.28c-1.28,0.7-2.66,1.13-4.06,1.49c-1.21,1.17-2.39,2.37-3.56,3.58
		c-3.32,0.08-6.68,0.32-9.96-0.26c-1.93-1.32-3.38-3.19-5-4.83C373.5659,720.3594,373.7659,717.8094,375.2859,715.8895z"/>
	<path fill="#3E3B34" stroke="#3E3B34" stroke-width="0.2" d="M1017.066,716.5095c7.3099,2.91,15.3299,4.16,21.8599,8.81
		c8.24,4.44,15.23,10.83,22,17.22c11.03,10.94,19.6901,25.94,18.34,41.97c-0.0399,7.31-3.26,13.94-5.48,20.74
		c8.7001,1.83,17.1801,5.58,23.59,11.86c2.76,2.76,4.54,6.61,4.5701,10.54c-0.28,4.28-3.52,7.48-6.55,10.17
		c5.39,1.73,11.27,2.79,15.5601,6.81c3.1,2.26,6.12,5.92,5.03,10.02c-1.3401,4.75-6.4301,6.8199-10.6901,8.22
		c-10.34,2.46-21.4299,0.79-30.96-3.77c-3.48-1.61-6.2001-4.54-8.09-7.82c-1.4401-2.42-0.17-5.1899,0.33-7.68
		c-9.52-0.71-19.04-2.87-27.5701-7.23c-4.4199-2.69-9.09-5.56-11.7699-10.15c-2.2301-3.45-2.64-8.14-0.4601-11.71
		c1.73-3.41,5.27-5.2,8.25-7.33c-42.1599-10.46-84.5099-20.25-127.1099-28.74c-55.21-10.75-110.95-19.05-167.05-23.3
		c-24.31-1.78-48.66-3.22-73.04-3.08h-0.1c-0.53-3.54-1.19-7.04-1.68-10.57c33.65-0.09,67.34,0.6,100.9,3.23
		c28.16,2.42,56.2,6.1201,84.01,11.17c46.19,8.03,91.66,19.58,137.32,30.09c20.68,4.2,41.4899,8.9,62.6899,8.95
		c5.95-0.3,12.96-0.27,17.34-4.99c4.23-4.13,3.79-10.74,2.26-15.97c-2.95-9.3799-8.84-17.53-15.29-24.83
		c-11.1-11.74-23.6799-22.15-37.4799-30.55C1017.616,718.0695,1017.256,717.0294,1017.066,716.5095 M1060.246,808.0195
		c-6.4701,0.95-13.42,2.84-17.76,8.09c-3.1001,3.57-3.03,9.33-0.02,12.94c4.23,5.56,10.7999,8.68,17.4199,10.42
		c4.28,1.05,9.0601,2.3701,13.2201,0.23c5.48-2.61,11.6499-2.27,17.5499-2.61c3.89-2.11,7.28-5.91,7.5601-10.5
		c0.1799-4.27-2.67-7.91-5.79-10.5C1083.486,808.9495,1071.4059,806.8494,1060.246,808.0195 M1085.3259,841.0494
		c-4.89,0.96-10.9501,4.74-9.79,10.51c1.6,4.93,6.55,7.79,11.24,9.28c7.13,2.16,15.3201,2.24,22.03-1.33
		c3.14-1.56,5.59-5.05,4.72-8.66c-1.63-4.7599-6.4199-7.33-10.87-8.91C1097.0759,840.3094,1091.0159,839.5695,1085.3259,841.0494z"
		/>
	<path fill="#020100" stroke="#020100" stroke-width="0.2" d="M1038.9259,725.3195c2.12-1.24,4.35-0.1,6.4,0.68
		c12.24,4.44,24.22,9.57,35.95,15.21c17.63,8.58,35.1,18.0699,49.91,31.08c10.64,8.87,20.28,19.49,25.73,32.38
		c4.9301,11.29,5.11,24.25,1.36,35.9c-7.15,25.28-24.6899,46.29-45.0399,62.28c-3.9501,3.16-8.25,5.9-11.78,9.55
		c-7.76,3.96-14.9,9.08-22.61,13.17c-37.3101,20.51-78.02,33.96-119.05,44.79c-67.71,17.29-137.17,27.03-206.8,32.12
		c-26.64,2.04-53.35,2.64-80.05,3.1c-56.32,1.14-112.71,0.3-168.9301-3.47c-57.46-3.95-114.85-10.74-171.13-23.22
		c-33.68-7.56-67.06-17.06-98.87-30.57c-15.72-6.71-30.91-14.61-45.73-23.11c-0.83-0.45-1.57-1-2.21-1.66
		c-3.11-3.71-7.73-5.62-11.07-9.1c-12.1-9.53-22.49-21.26-30.05-34.69c-1.51-3.36-2.67-6.86-4.03-10.27
		c-2.59-6.68-2.89-13.9-3.85-20.92c3.99-1.85,9.06-3.54,10.83-7.96c1.18-3.33-1.89-5.69-4.79-6.21c-1.31-0.5-2.6-1.06-3.87-1.61
		c2.26-8.61,5.6-16.98,10.42-24.49c9.23-14.41,21.2-26.95,34.7-37.42c24.1-18.77,51.54-32.79,79.76-44.25
		c1.1-0.51,2.31-0.49,3.49-0.48c-5.72,4.37-10.54,9.85-14.21,16.04c-1.29,0-2.58,0.01-3.86,0.03c-7.2-0.43-13.44,6.29-13.38,13.35
		c-0.38,5.2,3.19,9.93,7.85,11.91c2.52,0.79,5.37,0.52,7.64,2.07c1.19,3.01,3.42,5.42,5.86,7.47c8.14,6.5099,18.41,9.73,28.59,11.3
		c17.78,2.74,35.88,2.51,53.79,1.34c27.94-1.89,55.48-7.13,83.01-12.0099c43.74-8.41,87.66-16.28,132.01-20.79
		c18.34-1.62,36.7-3.68,55.13-3.79c0.14,0.6,0.4,1.79,0.54,2.39c-0.2,10.79-2.1,21.54-2.22,32.3c3.17-11.78,6.37-23.56,9.21-35.43
		c15.59-0.48,31.19-0.54,46.78-0.81c1.91,5.07,3.95,10.1,6.14,15.07c-0.77-4.8701-1.99-9.65-2.67-14.53
		c24.38-0.14,48.73,1.3,73.04,3.08c56.1,4.25,111.84,12.55,167.05,23.3c42.6,8.49,84.95,18.28,127.1099,28.74
		c-2.98,2.13-6.52,3.92-8.25,7.33c-2.1799,3.57-1.77,8.26,0.4601,11.71c2.6799,4.59,7.35,7.46,11.7699,10.15
		c8.53,4.36,18.05,6.52,27.5701,7.23c-0.5,2.4901-1.77,5.26-0.33,7.68c1.8899,3.28,4.61,6.21,8.09,7.82
		c9.53,4.56,20.62,6.23,30.96,3.77c4.26-1.4,9.35-3.47,10.6901-8.22c1.09-4.1-1.9301-7.76-5.03-10.02
		c-4.29-4.02-10.17-5.08-15.5601-6.81c3.03-2.69,6.27-5.89,6.55-10.17c-0.03-3.9301-1.8101-7.78-4.5701-10.54
		c-6.4099-6.28-14.8899-10.03-23.59-11.86c2.22-6.8,5.4401-13.43,5.48-20.74c1.3501-16.03-7.3099-31.03-18.34-41.97
		C1054.1559,736.1495,1047.1659,729.7595,1038.9259,725.3195 M1085.2959,759.9495c-2.84,0.77-7.51,1.98-7.2999,5.63
		c2.33,6.38,12.5699,6.3,15.87,0.92C1095.476,761.6194,1088.996,759.5494,1085.2959,759.9495 M195.396,776.1895
		c-3.32,0.67-6.74,3.32-4.96,7.11c3.03,3.71,9.07,3.87,13.11,1.78c2.33-1.14,4.39-4.94,1.64-6.72
		C202.716,775.6395,198.756,775.5294,195.396,776.1895 M1117.0459,789.7894c-4.3199,0.73-9.78,3.7-9.34,8.76
		c0.91,4.6,6.0499,6.3,10.12,6.96c4.62,0.31,9.7999-0.42,13.33-3.69c2.1801-2.12,2.89-5.78,0.72-8.16
		C1128.1559,789.6895,1122.1759,788.7894,1117.0459,789.7894 M208.226,809.0494c-1.91,1.05-3.02,3.02-4.19,4.79
		c1.28,1.8199,2.46,4.23,4.92,4.61c3.43,0.65,7.13,0.06,10.19-1.62c1.19-1.39,2.37-3.72,0.62-5.17
		C216.976,808.2394,212.196,808.1594,208.226,809.0494 M320.9059,845.0394c-20.48,4.17-40.76,9.39-60.6,15.98
		c-17.43,6.1-34.92,12.96-49.91,23.98c-5.42,4.18-10.52,9.01-13.92,15.03c-3.05,5.5601-4.05,12.5-1.65,18.4901
		c1.34,1.46,3.22,2.21,4.88,3.24c32.54,19,68.04,32.35,104.08,42.99c55.83,16.24,113.36,25.98,171.08,32.48
		c-17.34-5.79-34.26-12.73-51.1-19.82c2.5-1.33,4.98-2.99,6.51-5.42c1.84-3.56-0.24-7.54-2.65-10.22
		c-4.81-4.65-11.45-6.4-17.67-8.2401c3.36-2.73,7.09-6.2,6.74-10.9399c-0.31-6.65-5.65-11.5601-10.92-14.86
		c-9.62-5.6-20.79-8.43-31.88-8.67c-11.22-0.26-23.56,1.42-31.84,9.74c-12.15-11.74-23.64-25.86-25.97-43.16
		c-2.41-14.83,3.44-29.4,11.33-41.66C325.2059,844.0594,323.0459,844.5394,320.9059,845.0394z"/>
	<path fill="#553C1E" stroke="#553C1E" stroke-width="0.2" d="M317.1859,730.7294c6.18-4.11,15.24,0.85,16.35,7.87
		c-1.02,0.52-2.05,1.05-3.06,1.6c-0.8,1.17-1.36,2.6-2.54,3.48c-3.33,0.41-6.7,0.21-10.03,0.03c-3.65,0.3199-4.12-4.56-7.58-5.14
		C311.506,735.2595,313.636,731.8094,317.1859,730.7294z"/>
	<path fill="#3E3B35" stroke="#3E3B35" stroke-width="0.2" d="M660.396,739.9794l0.08-0.51c1.07,4.08,2.5,8.06,3.88,12.05
		c-15.59,0.27-31.19,0.33-46.78,0.81c0.71-3.13,1.43-6.25,2.11-9.37l0.14-0.01c13.43-1.05,26.9-0.96,40.35-1.42
		C660.226,741.1395,660.3459,740.3594,660.396,739.9794z"/>
	<path fill="#543D1E" stroke="#543D1E" stroke-width="0.2" d="M236.166,755.5695c-0.06-7.06,6.18-13.78,13.38-13.35
		c1.69,0.61,3.35,1.26,5.04,1.9c3.49,4.18,7.53,9.43,5.18,15.19c-2.04,2.61-3.74,5.42-4.72,8.61c-0.36,1.52-2.29,1.14-3.39,1.63
		c-2.27-1.55-5.12-1.28-7.64-2.07C239.356,765.4995,235.786,760.7695,236.166,755.5695z"/>
	<path fill="#16130D" stroke="#16130D" stroke-width="0.2" d="M1085.2959,759.9495c3.7001-0.4,10.1801,1.67,8.5701,6.55
		c-3.3,5.38-13.54,5.46-15.87-0.92C1077.7859,761.9294,1082.4559,760.7194,1085.2959,759.9495z"/>
	<path fill="#17130A" stroke="#17130A" stroke-width="0.2" d="M267.326,760.9995c2.88-0.12,6.3,0.91,7.73,3.61
		c1.08,1.97-0.6,3.87-1.94,5.17c-3.25,2.1201-7.54,2.21-11.08,0.76c-2.26-0.66-3.26-3.5-2.73-5.63
		C260.9059,762.0294,264.2859,761.2394,267.326,760.9995z"/>
	<path fill="#533E21" stroke="#533E21" stroke-width="0.2" d="M195.396,776.1895c3.36-0.66,7.32-0.55,9.79,2.17
		c2.75,1.78,0.69,5.58-1.64,6.72c-4.04,2.09-10.08,1.93-13.11-1.78C188.656,779.5095,192.076,776.8594,195.396,776.1895z"/>
	<path fill="#B9B5B4" stroke="#B9B5B4" stroke-width="0.2" d="M36.636,777.7394c0.19-0.28,0.59-0.85,0.79-1.14
		c2.32,22.06,9.07,43.61,19.28,63.28c9.69,17.85,21.97,34.27,36.21,48.75c21.72,21.93,47.19,39.87,74.06,54.91
		c57.57,31.75,121.05,51.04,185.01,65.04c-0.36,0.34-1.08,1.01-1.44,1.34c1.02,5.91-0.95,11.73-0.67,17.65
		c0.26,5.37-1.06,10.64-0.99,16.01c-0.1,5.1899,0.4,10.4299-0.38,15.6c-1.04,6.08-0.42,12.26-0.53,18.39
		c0.05,4.27-0.38,8.5699,0.31,12.8199c1.6,8.4601-0.35,17.14,1.22,25.62c0.93,5.02-0.13,10.17,0.85,15.2001
		c0.85,4.4,0.31,8.9,0.72,13.36c1.3,11.95,3.21,23.84,4.15,35.84c1.23,12.98,3.48,25.84,5.23,38.76
		c1.52,4.88,1.49,10.0601,2.83,14.98c2.32,9.88,3.19,20.05,6,29.8201c2.15,11.2999,4.79,22.5,7.58,33.6599
		c1.03,6.4901,3.47,12.63,4.85,19.05c3.08,14.05,7.78,27.66,11.49,41.54c1.05,5.5699,3.75,10.64,4.89,16.2
		c1.05,4.9401,3.54,9.4,4.82,14.29c0.61,2.36,1.69,4.85,0.91,7.33c1.49,0.96,2.44,2.4301,2.54,4.23
		c-50.84-18.58-98.7-45.3099-141.03-79.0499c-29.58-23.5701-56.33-50.64-79.89-80.2201c-57.62-72.1399-95.43-158.45-118.27-247.4899
		C49.006,922.9995,39.836,850.3895,36.636,777.7394 M58.956,859.2695c0.01,3.47,0.74,6.89,1.31,10.31
		c6.63,42.68,15.62,85.05,28.13,126.41c8.66,27.99,19.15,55.52,32.71,81.52c5.18,9.53,10.21,19.2101,16.62,27.99
		c-1.63-7.1-4.37-13.8999-6.09-21c-8.08-29.71-14.35-60.0499-16.17-90.8499c-1.08-22.58-0.08-45.78,7.9-67.17
		c-2.35-2.19-5.29-3.56-7.99-5.24c-20.29-12.43-38.32-29.25-49.9-50.22C63.006,867.2595,61.656,862.8594,58.956,859.2695z"/>
	<path fill="#CCC7C4" stroke="#CCC7C4" stroke-width="0.2" d="M1251.0559,790.6995c1.17-3.3,1.77-6.81,3.58-9.85
		c0.3401,2.41,0.63,4.84,0.8601,7.28c-0.66,4.48-1.8101,8.9-2.0801,13.45c-2.48,21.92-5.61,43.77-9.11,65.54
		c-0.8099,4.29-2.04,8.52-2.16,12.92c-5.6599,32.01-12.22,63.88-20.45,95.35c-0.98,4.99-3.28,9.66-3.58,14.8
		c-3.16,7.09-3.88,14.95-6.4601,22.26c-3.61,9.78-6.25,19.8999-9.39,29.83c-1.8099,1.86-2.8099,4.2101-2.85,6.8301
		c-3.3199,8.7699-6.65,17.5499-9.61,26.46c-4.51,12.23-10.88,23.6899-15.23,35.98c-4.13,7.59-7.2001,15.6901-11.26,23.3101
		c-19.98,40.62-44.48,79.0299-73.16,114.0499c-24.27,29.25-51.78,55.84-82.1099,78.76c-8.93,6.9-18.4,13.0601-27.62,19.5601
		c-31.84,20.5-65.89,37.5699-101.48,50.5299c-40.93,15.3101-83.68,25.3601-126.88,31.66c-52.34,7.52-105.41,9.52-158.21,7.27
		c-3.4-10.52-4.69-21.59-6.52-32.46c-2.22-9.26-2.9301-18.78-4.97-28.0801c-2.13-9.59-2.8-19.4199-4.9-29.01
		c-1.78-13.88-3.39-27.7899-5.5601-41.61c-1.17-5.58-0.78-11.34-2.02-16.9c-1.6-9.5099-2.03-19.1699-3.38-28.71
		c-0.75-7.5-2.09-14.9299-2.59-22.4399c0.24-12.4-3.26-24.52-2.97-36.92c-1.33-8.96-0.71-18.0601-2.28-27
		c-1-6.09-0.32-12.29-1.25-18.38c-0.84-5.3199-0.11-10.75-1.05-16.0599c-0.77-4.78-0.05-9.64-0.75-14.42
		c-0.81-5.6901-0.62-11.4301-0.74-17.15c0.05-5.6899-1.15-11.3-0.97-16.98c0.3-11.03-1.4-21.99-0.95-33.02
		c0.48-7.95-1.06-15.8-1.02-23.72c4.01,0.36,8.02,0.7899,12.06,0.7799c9.66-0.12,19.26,1.3301,28.92,1
		c6.7-0.25,13.39,0.14,20.07,0.55c17.63,0.0699,35.27,0.29,52.9-0.09c10.01-0.9,20.05-0.1801,30.08-0.5801
		c6.33-0.1499,12.64-1.08,18.99-0.89c7.35,0.2301,14.65-0.99,22-0.98c6.69,0.1,13.3-1.23,19.99-1.0699
		c44.13-3.1,88.26-7.12,131.93-14.33c45.7-7.15,91.05-17.14,135.0099-31.64c7.29-2.06,13.98-5.68,21.18-7.98
		c9.98-3.96,20.04-7.73,29.85-12.08c8.5-4.25,17.38-7.71,25.63-12.45c6.77-3.95,14.04-6.97,20.61-11.28
		c24.27-14.2,46.85-31.34,66.79-51.19C1216.2159,863.2894,1238.0059,828.5294,1251.0559,790.6995 M1233.5359,864.5695
		c-12.23,24.79-29.73,46.98-50.74,64.94c-14.26,12.12-30.02,22.33-46.27,31.57c-1.25,0.96-4.02,1.68-3.0699,3.77
		c6.53,21.9,7.39,45.04,6.23,67.72c-2.8199,45.26-13.61,89.62-27.1801,132.76c-6.12,18.52-12.2699,37.09-19.9399,55.03
		c0.17,0.26,0.52,0.7799,0.6899,1.0399c1.5701-2.27,2.9901-4.63,4.5701-6.89c22.47-31.5699,40.97-65.7799,57.0599-100.97
		c35.4401-78.67,59.54-161.93,78.7001-245.89C1233.6459,866.6094,1233.6259,865.5795,1233.5359,864.5695z"/>
	<path fill="#99805A" stroke="#99805A" stroke-width="0.2" d="M1117.0459,789.7894c5.13-1,11.11-0.1,14.83,3.87
		c2.17,2.38,1.4601,6.04-0.72,8.16c-3.53,3.27-8.71,4-13.33,3.69c-4.0701-0.66-9.21-2.36-10.12-6.96
		C1107.2659,793.4894,1112.726,790.5195,1117.0459,789.7894z"/>
	<path fill="#020100" stroke="#020100" stroke-width="0.2" d="M1060.246,808.0195c11.1599-1.17,23.24,0.93,32.1799,8.07
		c3.12,2.59,5.97,6.23,5.79,10.5c-0.28,4.59-3.67,8.39-7.5601,10.5c-5.9,0.34-12.0699,0-17.5499,2.61
		c-4.16,2.14-8.9401,0.82-13.2201-0.23c-6.62-1.74-13.1899-4.86-17.4199-10.42c-3.01-3.61-3.0801-9.37,0.02-12.94
		C1046.8259,810.8594,1053.7759,808.9694,1060.246,808.0195 M1084.4259,817.2194c-4.9399,0.5-9.47,6.14-6.74,10.9301
		c3.71,6.96,16.01,5.28,17.41-2.59C1096.0859,819.7894,1089.4659,816.0895,1084.4259,817.2194z"/>
	<path fill="#17130C" stroke="#17130C" stroke-width="0.2" d="M208.226,809.0494c3.97-0.89,8.75-0.81,11.54,2.61
		c1.75,1.45,0.57,3.78-0.62,5.17c-3.06,1.68-6.76,2.27-10.19,1.62c-2.46-0.38-3.64-2.79-4.92-4.61
		C205.206,812.0695,206.316,810.0994,208.226,809.0494z"/>
	<path fill="#FFFFFD" stroke="#FFFFFD" stroke-width="0.2" d="M1084.4259,817.2194c5.04-1.1299,11.66,2.57,10.67,8.34
		c-1.4,7.87-13.7001,9.55-17.41,2.59C1074.9559,823.3594,1079.486,817.7194,1084.4259,817.2194z"/>
	<path fill="#523D1F" stroke="#523D1F" stroke-width="0.2" d="M125.466,840.0795c4.44-4.77,11.26-6.85,17.65-5.68
		c2.9,0.52,5.97,2.8799,4.79,6.21c-1.77,4.42-6.84,6.11-10.83,7.96c-3.62,0.14-7.56,0.47-10.85-1.3
		C123.596,845.9495,123.586,842.0195,125.466,840.0795z"/>
	<path fill="#030100" stroke="#030100" stroke-width="0.2" d="M1085.3259,841.0494c5.6899-1.48,11.75-0.74,17.33,0.89
		c4.4501,1.58,9.24,4.15,10.87,8.91c0.87,3.61-1.58,7.1-4.72,8.66c-6.71,3.57-14.9,3.49-22.03,1.33
		c-4.6899-1.4901-9.64-4.35-11.24-9.28C1074.3759,845.7894,1080.4359,842.0095,1085.3259,841.0494 M1099.3759,851.6594
		c0.4901,3.08,3.4501,5.44,6.5901,4.96c3.51,0.07,7.13-3.81,5.21-7.24C1108.5859,844.4595,1100.0359,846.0795,1099.3759,851.6594z"
		/>
	<path fill="#605C5B" stroke="#605C5B" stroke-width="0.2" d="M320.9059,845.0394c2.14-0.5,4.3-0.98,6.51-1.06
		c-7.89,12.26-13.74,26.83-11.33,41.66c2.33,17.3,13.82,31.42,25.97,43.16c-2.93,3.69-3.09,9.25-0.5,13.17
		c3.83,6.33,10.67,9.97,17.23,12.89c7,2.84,14.51,4.02,21.97,5.02c-1.06,3.05-1.3,6.56,0.89,9.22c5.41,7.18,14.77,9.84,23.34,10.7
		c6.31,0.52,12.97,0.4,18.78-2.39c16.84,7.09,33.76,14.03,51.1,19.82c-57.72-6.5-115.25-16.24-171.08-32.48
		c-36.04-10.64-71.54-23.99-104.08-42.99c-1.66-1.03-3.54-1.78-4.88-3.24c-2.4-5.9901-1.4-12.93,1.65-18.4901
		c3.4-6.02,8.5-10.85,13.92-15.03c14.99-11.02,32.48-17.88,49.91-23.98C280.1459,854.4294,300.4259,849.2095,320.9059,845.0394z"/>
	<path fill="#FEFDFB" stroke="#FEFDFB" stroke-width="0.2" d="M1099.3759,851.6594c0.66-5.58,9.2101-7.2,11.8-2.28
		c1.92,3.43-1.7,7.31-5.21,7.24C1102.8259,857.0994,1099.866,854.7394,1099.3759,851.6594z"/>
	<path fill="#E4E8E9" stroke="#E4E8E9" stroke-width="0.2" d="M58.956,859.2695c2.7,3.59,4.05,7.99,6.52,11.75
		c11.58,20.97,29.61,37.79,49.9,50.22c2.7,1.68,5.64,3.05,7.99,5.24c-7.98,21.39-8.98,44.59-7.9,67.17
		c1.82,30.8,8.09,61.14,16.17,90.8499c1.72,7.1001,4.46,13.9,6.09,21c-6.41-8.7799-11.44-18.46-16.62-27.99
		c-13.56-26-24.05-53.53-32.71-81.52c-12.51-41.36-21.5-83.73-28.13-126.41C59.696,866.1594,58.966,862.7394,58.956,859.2695z"/>
	<path fill="#FFFFFF" stroke="#FFFFFF" stroke-width="0.2" d="M1233.5359,864.5695c0.09,1.01,0.11,2.04,0.05,3.08
		c-19.16,83.96-43.26,167.2199-78.7001,245.89c-16.09,35.1901-34.59,69.4-57.0599,100.97c-1.58,2.26-3,4.62-4.5701,6.89
		c-0.1699-0.26-0.5199-0.7799-0.6899-1.0399c7.67-17.9401,13.8199-36.51,19.9399-55.03c13.5701-43.14,24.3601-87.5,27.1801-132.76
		c1.16-22.68,0.3-45.82-6.23-67.72c-0.9501-2.09,1.8199-2.81,3.0699-3.77c16.25-9.24,32.01-19.45,46.27-31.57
		C1203.8059,911.5494,1221.3059,889.3594,1233.5359,864.5695z"/>
	<path fill="#3E3B35" stroke="#3E3B35" stroke-width="0.2" d="M342.0559,928.7994c8.28-8.32,20.62-10,31.84-9.74
		c11.09,0.24,22.26,3.07,31.88,8.67c5.27,3.3,10.61,8.21,10.92,14.86c0.35,4.74-3.38,8.21-6.74,10.9399
		c6.22,1.84,12.86,3.59,17.67,8.2401c2.41,2.68,4.49,6.66,2.65,10.22c-1.53,2.43-4.01,4.09-6.51,5.42
		c-5.81,2.79-12.47,2.91-18.78,2.39c-8.57-0.86-17.93-3.52-23.34-10.7c-2.19-2.66-1.95-6.17-0.89-9.22
		c-7.46-1-14.97-2.18-21.97-5.02c-6.56-2.92-13.4-6.56-17.23-12.89C338.9659,938.0494,339.1259,932.4894,342.0559,928.7994
		 M373.3159,924.0294c-6.76,1.13-14.41,3.88-17.55,10.5c-2.12,4.7401,0.42,10.01,3.98,13.26c6.17,5.36,14.29,7.84,22.27,8.87
		c2.84,0.56,5.34-1.21,7.94-2.02c4.97-1.87,10.36-1.32,15.55-1.68c3.99-2.4301,7.66-6.45,7.62-11.39c-0.5-4.53-3.67-8.28-7.28-10.8
		C396.4859,924.2595,384.4359,922.4495,373.3159,924.0294 M399.2159,957.0095c-4.57,1.32-10.38,4.89-8.92,10.5
		c1.5,4.77,6.44,7.25,10.79,8.92c8.11,2.48,17.96,2.79,24.89-2.78c3.42-2.77,3.13-8.39-0.14-11.15
		C418.7459,956.0994,408.2359,954.8094,399.2159,957.0095z"/>
	<path fill="#020100" stroke="#020100" stroke-width="0.2" d="M373.3159,924.0294c11.12-1.58,23.17,0.23,32.53,6.7401
		c3.61,2.52,6.78,6.27,7.28,10.8c0.04,4.94-3.63,8.96-7.62,11.39c-5.19,0.36-10.58-0.19-15.55,1.68c-2.6,0.81-5.1,2.58-7.94,2.02
		c-7.98-1.03-16.1-3.5099-22.27-8.87c-3.56-3.25-6.1-8.52-3.98-13.26C358.9059,927.9094,366.5559,925.1594,373.3159,924.0294
		 M398.3459,933.1594c-4.63,0.95-8.5,6.4-5.83,10.89c3.81,6.64,15.52,5.16,17.33-2.38
		C411.106,935.4694,403.6859,931.3195,398.3459,933.1594z"/>
	<path fill="#FEFDFC" stroke="#FEFDFC" stroke-width="0.2" d="M398.3459,933.1594c5.34-1.84,12.76,2.31,11.5,8.51
		c-1.81,7.54-13.52,9.02-17.33,2.38C389.8459,939.5594,393.7159,934.1094,398.3459,933.1594z"/>
	<path fill="#030000" stroke="#030000" stroke-width="0.2" d="M399.2159,957.0095c9.02-2.2,19.53-0.91,26.62,5.49
		c3.27,2.76,3.56,8.38,0.14,11.15c-6.93,5.5699-16.78,5.2599-24.89,2.78c-4.35-1.67-9.29-4.15-10.79-8.92
		C388.8359,961.8995,394.6459,958.3295,399.2159,957.0095 M417.3059,963.0294c-2.22,1.1-3.79,4.1801-2.38,6.46
		c2.36,4.75,11.05,3.45,11.57-2.01C426.756,962.9495,420.7359,960.7994,417.3059,963.0294z"/>
	<path fill="#FFFDFE" stroke="#FFFDFE" stroke-width="0.2" d="M417.3059,963.0294c3.43-2.23,9.45-0.08,9.19,4.45
		c-0.52,5.46-9.21,6.76-11.57,2.01C413.5159,967.2095,415.0859,964.1295,417.3059,963.0294z"/>
	<path fill="#C2BDBA" stroke="#C2BDBA" stroke-width="0.2" d="M351.9859,1008.5795c65.78,14.12,132.85,21.37,199.95,25.25
		c-0.04,7.9199,1.5,15.77,1.02,23.72c-0.45,11.03,1.25,21.99,0.95,33.02c-0.18,5.6799,1.02,11.29,0.97,16.98
		c0.12,5.72-0.07,11.46,0.74,17.15c0.7,4.78-0.02,9.64,0.75,14.42c0.94,5.3099,0.21,10.74,1.05,16.0599
		c0.93,6.09,0.25,12.29,1.25,18.38c1.57,8.9399,0.95,18.04,2.28,27c-0.29,12.4,3.21,24.52,2.97,36.92
		c0.5,7.51,1.84,14.9399,2.59,22.4399c1.35,9.54,1.78,19.2001,3.38,28.71c1.24,5.5601,0.85,11.3201,2.02,16.9
		c2.17,13.8201,3.78,27.73,5.5601,41.61c2.1,9.5901,2.77,19.42,4.9,29.01c2.04,9.3,2.75,18.8201,4.97,28.0801
		c1.83,10.87,3.12,21.9399,6.52,32.46c-63.81-2.77-127.49-14.3101-187.49-36.42c-0.1-1.7999-1.05-3.27-2.54-4.23
		c0.78-2.48-0.3-4.97-0.91-7.33c-1.28-4.89-3.77-9.35-4.82-14.29c-1.14-5.5599-3.84-10.63-4.89-16.2
		c-3.71-13.88-8.41-27.49-11.49-41.54c-1.38-6.42-3.82-12.5599-4.85-19.05c-2.79-11.1599-5.43-22.36-7.58-33.6599
		c-2.81-9.77-3.68-19.9401-6-29.8201c-1.34-4.9199-1.31-10.1-2.83-14.98c-1.75-12.92-4-25.78-5.23-38.76
		c-0.94-12-2.85-23.89-4.15-35.84c-0.41-4.46,0.13-8.96-0.72-13.36c-0.98-5.03,0.08-10.1801-0.85-15.2001
		c-1.57-8.48,0.38-17.1599-1.22-25.62c-0.69-4.25-0.26-8.5499-0.31-12.8199c0.11-6.13-0.51-12.3101,0.53-18.39
		c0.78-5.17,0.28-10.41,0.38-15.6c-0.07-5.37,1.25-10.64,0.99-16.01c-0.28-5.92,1.69-11.74,0.67-17.65
		C350.9059,1009.5895,351.6259,1008.9194,351.9859,1008.5795z"/>
</g>
</svg>
